<svg xmlns="http://www.w3.org/2000/svg" viewBox="0 0 649.3 350.5"><path d="M445.1 120.3L405 160.4l80.2 80.2H405L244.6 80.2l-107 107h133.9l53.3 53.3H4.1L244.6 0l120.3 120.3 80.2-80.2 200.4 200.4h-80.2L445.1 120.3zm-418 230.2c10.4 0 16.2-4 21.3-9.5l-8.7-8.8c-3.6 3.4-7 5.5-12 5.5-8.1 0-13.2-6.4-13.2-14.4v-.2c0-7.7 5.3-14.2 12.6-14.2 5.3 0 8.6 2.2 11.9 5.7l9-9.7c-4.9-5.4-11-8.8-20.8-8.8-15.8.1-27.2 12.4-27.2 27.3v.2c0 14.9 11.5 26.9 27.1 26.9zm51.2 0c16.2 0 28.3-12.2 28.3-27.1v-.2c0-15-12-26.9-28.1-26.9-16.2 0-28.3 12.2-28.3 27.1v.2c0 15 11.9 26.9 28.1 26.9zm.2-12.7c-8.2 0-13.7-6.7-13.7-14.4v-.2c0-7.7 5.1-14.2 13.5-14.2 8.2 0 13.7 6.7 13.7 14.4v.2c0 7.7-5.1 14.2-13.5 14.2zm34.9 11.5h14.8v-29.1c0-7 3.6-10.6 9.2-10.6s8.9 3.6 8.9 10.6v29.1h14.8v-33.7c0-12-6.5-19.4-17.7-19.4-7.5 0-11.9 4-15.3 8.4v-7.4h-14.8v52.1zm81.4 1.2c9.4 0 16.4-3.7 21.3-9.7l-8.5-7.5c-4.1 3.8-7.7 5.3-12.6 5.3-6.6 0-11.3-3.5-12.7-10.2h36.3c.1-1.4.2-2.7.2-3.9 0-14.8-8-28.3-25.4-28.3-15.2 0-25.8 12.3-25.8 27.1v.2c-.1 16 11.5 27 27.2 27zM182 319.2c1.2-6.7 5.2-11.1 11.3-11.1 6.2 0 10.1 4.5 11 11.1H182zm68.4 31.3c10.4 0 16.2-4 21.3-9.5l-8.7-8.8c-3.6 3.4-7 5.5-12 5.5-8.1 0-13.2-6.4-13.2-14.4v-.2c0-7.7 5.3-14.2 12.6-14.2 5.3 0 8.6 2.2 11.9 5.7l9-9.7c-4.9-5.4-11-8.8-20.8-8.8-15.9 0-27.3 12.3-27.3 27.1v.2c.1 15.1 11.5 27.1 27.2 27.1zm44.6-.3c5 0 8.6-1.2 11.7-3v-11.9c-2.1 1.2-4.6 1.8-7.3 1.8-3.3 0-4.8-1.7-4.8-5.1v-22.3h12.3v-12.6h-12.3v-13.3h-14.8v13.3h-6.2v12.6h6.2v24.7c.1 12.2 6.2 15.8 15.2 15.8zm33.7.1c7.2 0 12.2-2.6 15.8-6.6v5.6h14.3v-30.2c0-7-1.8-12.7-5.6-16.6-3.7-3.7-9.5-5.8-17.6-5.8-8.8 0-14.5 1.7-20.2 4.2l3.7 11.3c4.8-1.8 8.8-2.8 14.4-2.8 7.4 0 11.2 3.4 11.2 9.5v.9c-3.7-1.3-7.5-2.1-12.7-2.1-12.3 0-21 5.3-21 16.6v.2c-.2 10.2 7.9 15.8 17.7 15.8zm4.5-10.2c-4.8 0-8.1-2.3-8.1-6.3v-.2c0-4.7 3.9-7.2 10.2-7.2 3.6 0 6.9.8 9.4 1.9v2.6c0 5.4-4.6 9.2-11.5 9.2zm65.4 10.2c12.3 0 23.7-9.5 23.7-26.9v-.2c0-17.4-11.6-26.9-23.7-26.9-7.7 0-12.6 3.6-16.2 8.5v-26.4h-14.8v71h14.8v-6.8c3.5 4.1 8.3 7.7 16.2 7.7zm-3.8-12.5c-6.9 0-12.6-5.7-12.6-14.4v-.2c0-8.7 5.7-14.4 12.6-14.4s12.7 5.7 12.7 14.4v.2c0 8.7-5.8 14.4-12.7 14.4zm49.3 12.5c7.2 0 12.2-2.6 15.8-6.6v5.6h14.3v-30.2c0-7-1.8-12.7-5.6-16.6-3.7-3.7-9.5-5.8-17.6-5.8-8.8 0-14.5 1.7-20.2 4.2l3.7 11.3c4.8-1.8 8.8-2.8 14.4-2.8 7.4 0 11.2 3.4 11.2 9.5v.9c-3.7-1.3-7.5-2.1-12.7-2.1-12.4 0-21 5.3-21 16.6v.2c-.2 10.2 7.9 15.8 17.7 15.8zm4.5-10.2c-4.8 0-8.1-2.3-8.1-6.3v-.2c0-4.7 3.9-7.2 10.2-7.2 3.6 0 6.9.8 9.4 1.9v2.6c.1 5.4-4.6 9.2-11.5 9.2zm35.1 9.2h14.8v-71h-14.8v71zm49.5 1.2c9.4 0 16.4-3.7 21.3-9.7l-8.5-7.5c-4.1 3.8-7.7 5.3-12.6 5.3-6.6 0-11.3-3.5-12.7-10.2H557c.1-1.4.2-2.7.2-3.9 0-14.8-8-28.3-25.4-28.3-15.2 0-25.8 12.3-25.8 27.1v.2c-.1 16 11.5 27 27.2 27zm-12.8-31.3c1.2-6.7 5.2-11.1 11.3-11.1 6.2 0 10.1 4.5 11 11.1h-22.3zm58.6 31.1c7.2 0 12.2-2.6 15.8-6.6v5.6H609v-30.2c0-7-1.8-12.7-5.6-16.6-3.7-3.7-9.5-5.8-17.6-5.8-8.8 0-14.5 1.7-20.2 4.2l3.7 11.3c4.8-1.8 8.8-2.8 14.4-2.8 7.4 0 11.2 3.4 11.2 9.5v.9c-3.7-1.3-7.5-2.1-12.7-2.1-12.4 0-21 5.3-21 16.6v.2c-.1 10.2 8 15.8 17.8 15.8zm4.5-10.2c-4.8 0-8.1-2.3-8.1-6.3v-.2c0-4.7 3.9-7.2 10.2-7.2 3.6 0 6.9.8 9.4 1.9v2.6c0 5.4-4.6 9.2-11.5 9.2zm34.4 9.2h14.8V330c0-12.4 6-18.4 15.9-18.4h.8v-15.5c-8.8-.4-13.6 4.3-16.6 11.5v-10.5H618v52.2z" fill="#fff"/></svg>